<svg width="48" height="48" viewBox="0 0 48 48" fill="none" xmlns="http://www.w3.org/2000/svg">
<circle cx="24" cy="24" r="24" fill="#82D0DB"/>
<path d="M30.465 22.446C30.465 21.198 30.273 19.966 29.889 18.75H36.321C36.337 18.99 36.345 19.342 36.345 19.806C36.345 21.854 36.073 23.55 35.529 24.894C34.105 25.31 32.921 25.862 31.977 26.55C31.033 27.238 30.561 27.95 30.561 28.686C30.561 29.406 30.889 30.094 31.545 30.75H25.497C24.505 29.278 23.665 27.574 22.977 25.638C22.449 26.838 22.185 27.854 22.185 28.686C22.185 29.502 22.417 30.19 22.881 30.75H16.857C15.625 29.118 14.577 27.23 13.713 25.086C12.849 22.942 12.265 20.83 11.961 18.75H18.345C18.617 22.19 19.321 25.046 20.457 27.318C21.273 25.926 21.681 24.238 21.681 22.254C21.681 21.182 21.545 20.014 21.273 18.75H26.985C27.241 21.918 27.993 24.774 29.241 27.318C30.057 25.814 30.465 24.19 30.465 22.446Z" fill="white"/>
</svg>
